<svg id="Layer_1" data-name="Layer 1" xmlns="http://www.w3.org/2000/svg" xmlns:xlink="http://www.w3.org/1999/xlink" viewBox="0 0 300 400"><defs><style>.cls-1{fill:none;}.cls-2{opacity:0.15;}.cls-12,.cls-3{fill:#fff;}.cls-4{fill:#020202;}.cls-5{fill:#1e1e1e;}.cls-6{fill:#353534;}.cls-7{fill:#e5ccb7;}.cls-8{clip-path:url(#clip-path);}.cls-9{fill:#dbbfa4;}.cls-10{fill:#b3987d;}.cls-11{clip-path:url(#clip-path-2);}.cls-12{opacity:0.35;}.cls-13{clip-path:url(#clip-path-3);}</style><clipPath id="clip-path"><path class="cls-1" d="M75.07,87.64s-7.34,20.9-8.47,33.87a63.38,63.38,0,0,1-8.46,27.08c-3.38,6.21-5.64,32.72-9,54.16s-3.39,79.54,47.95,115.08,98.15,13.54,110,3.95,37.8-46.26,39.49-91.39,2.26-53,3.38-62.62-6.2-24.26-8.46-33.28-1.69-20.31-1.13-28.77S239.79,82,205.94,77,92,58.28,75.07,87.64Z"/></clipPath><clipPath id="clip-path-2"><path class="cls-1" d="M133.22,180.29c-2.62,4-5.71,7.8-9.83,10.27-11.27,5.12-25.1,3.94-36.93,1.47-5.31-1.43-11.44-3.33-13.8-8.68-4.39-9.88-5-21.07-5.51-31.76,19.16-8.39,42.33-9.89,61.64-1,4.21,2.19,9.45,4.39,11.78,8.67C141,166.77,136.94,174,133.22,180.29Z"/></clipPath><clipPath id="clip-path-3"><path class="cls-1" d="M233.07,153.25a114,114,0,0,1-2.85,22.63c-1.4,6.05-3.92,12.07-10.32,14.16-11.33,4.58-37.21,6.73-47.19-1.27-6.13-5.23-10.23-12.6-13-20.08-.89-3.31-3.23-8.38-.47-11.17,6.23-5.89,14.69-9,22.9-11.06,16.35-4,35.72-1.43,51,5.13C233.12,151.63,233.08,153.21,233.07,153.25Z"/></clipPath></defs><path class="cls-2" d="M294.4,184.38c-.09-1.39-.19-2.77-.31-4.16,0-.25,0-.51-.07-.76q-.58-6.78-1.54-13.49h0c0-.28-.08-.56-.13-.84V165c0-.27-.09-.55-.14-.83l0-.09c-.05-.28-.1-.56-.16-.84l0-.08c-.06-.29-.12-.58-.19-.86l0-.05a21.72,21.72,0,0,0-1.14-3.53,13.64,13.64,0,0,0-.63-2.84v0c-.09-.27-.19-.54-.29-.79s.1-.32.16-.49l0-.08c.12-.35.23-.73.34-1.14l0-.12c.05-.18.1-.37.14-.56l0-.09.15-.67,0-.15c.05-.19.08-.38.12-.58l0-.17c.05-.24.09-.48.13-.73,0,0,0-.09,0-.13l.09-.64c0-.08,0-.15,0-.22,0-.26.06-.52.08-.78v0c0-.26,0-.53.05-.81,0-.07,0-.15,0-.23s0-.46,0-.69v-.16c0-.28,0-.56,0-.84,0-.07,0-.14,0-.22s0-.45-.05-.68a1.8,1.8,0,0,1,0-.22q0-.44-.12-.87a.77.77,0,0,0,0-.15c0-.25-.09-.5-.14-.74,0-.08,0-.16-.05-.24-.07-.29-.14-.59-.22-.88a1.14,1.14,0,0,0,.12.12c.16.13.42.29.66.07h0a.86.86,0,0,0,.15-.2,3.78,3.78,0,0,0,.27-1.56v-.15s0-.08,0-.13v0c0-.06,0-.12,0-.18v0l0-.25v0q0-.13,0-.3v0c0-.23.05-.5.07-.8v0l0-.48v0q.06-.78.09-1.77v0c.43-11.67-1.23-44.9-31-67.55-.1-.19-.21-.38-.32-.57l-.16-.29c-.08-.12-.15-.24-.22-.36l-.18-.3-.26-.42-.15-.24c-.14-.21-.27-.42-.42-.63s-.11-.18-.17-.27-.21-.29-.31-.45l-.19-.27-.4-.55-.12-.17-.54-.71-.19-.26-.42-.53-.21-.26-.58-.71-.07-.09c-.22-.26-.45-.54-.69-.81l-.22-.25-.55-.63-.24-.26-.79-.88h0a24.05,24.05,0,0,0-2-2l-.16-.13a36.36,36.36,0,0,0-2.94-2.22L248,53.9c-1.18-.79-2.46-1.56-3.82-2.3l-.75-.4c-.55-.3-1.12-.59-1.7-.88L241,50l-1.4-.67-1.46-.66c-1.16-.51-2.36-1-3.57-1.49l-2.15-.82a114.91,114.91,0,0,0-23.75-6l-1.77-.21a48.63,48.63,0,0,0-7.89-.3c-6.9.38-13.51.63-18.64.61-1.37,0-2.63,0-3.76-.08l-1.61-.1q-1.12-.08-2-.21c-1.56-.22-2.5-.56-2.63-1-.52-1.82,7-2.88,9.66-1.73a18.5,18.5,0,0,0-6-1.34c-.44,0-.91-.07-1.4-.09l-.81,0h-.82a52.69,52.69,0,0,0-14.28,2.37,72.33,72.33,0,0,1-10.85,2.37c-.81.11-1.59.2-2.35.28l-1.12.1c-5.19.45-9.48.28-13.74.59-1.22.08-2.43.21-3.66.4-.93.14-1.86.32-2.82.55C112,44.87,109.8,47.54,109.8,47.54a7.59,7.59,0,0,1,2.11-.2c.2,0,.32.13.28.29a.56.56,0,0,1-.12.23A11.93,11.93,0,0,1,109,50s-1.23.59-3.49,2l-.46.29a115.33,115.33,0,0,0-10.78,7.66h0c-.52.41-1,.83-1.54,1.27l0,0c-.51.44-1,.88-1.51,1.34h0a88.94,88.94,0,0,0-11.07,5.73h0c-.67.42-1.33.83-2,1.26h0c-25.44,16.59-32.86,41.65-35,56.28h0c-.33,2.24-.53,4.24-.65,5.93v0c0,.27,0,.54-.06.79v0c0,.25,0,.49,0,.73v0c0,.23,0,.46,0,.67v0c0,.89,0,1.63,0,2.2v.42a2.81,2.81,0,0,0,0,.3v.46h0v.1h0v0c0,.18,0,.35,0,.5s0,.28,0,.4,0,.14,0,.2c.19,1.43,1,.58,1,.58h0c-.11.28-.2.57-.29.85,0,.08-.05.16-.08.24-.07.24-.14.48-.2.72,0,.05,0,.1,0,.15-.07.29-.13.57-.19.85a1.43,1.43,0,0,1,0,.22c0,.23-.08.46-.11.68l0,.22c0,.28-.07.55-.1.83,0,0,0,.11,0,.16,0,.24,0,.46,0,.69,0,.08,0,.16,0,.23,0,.27,0,.55,0,.81v0c0,.26,0,.52,0,.77v.22l0,.65a.57.57,0,0,1,0,.13l.06.74c0,.06,0,.12,0,.18s0,.39.06.57a1,1,0,0,1,0,.17c0,.23.06.45.1.67a.36.36,0,0,0,0,.1c0,.19.06.38.09.55s0,.1,0,.15c.08.41.16.8.24,1.15l0,.1.12.48h0c-.13.25-.25.5-.37.77v0a13.56,13.56,0,0,0-.87,2.78h0a19.48,19.48,0,0,0-1.15,2.54h0c-.11.29-.21.57-.31.86v.05q-.15.42-.27.84l0,.08-.24.82,0,.09c-.07.28-.15.55-.22.82v.07c-.07.28-.14.56-.2.84-1,4.53-2,9.11-2.81,13.72a180.08,180.08,0,0,0-2.92,32.46,128.42,128.42,0,0,0,.88,14.15,111.73,111.73,0,0,0,2.37,13.41c.17.69.35,1.38.55,2.08a26.41,26.41,0,0,0,4.5,9.36l.39.46c.27.3.54.59.83.86a11.3,11.3,0,0,0,4.58,2.74h0c.24.07.48.14.73.19l.13,0c.25.06.5.1.75.14h0c.12.18.25.35.38.52l.1.1a3.89,3.89,0,0,0,.34.36l.15.13.36.3.18.13c.12.09.25.17.38.25l.21.13a4.16,4.16,0,0,0,.42.23L52,255l.46.22.25.1c.17.08.35.15.54.22l.22.09c.26.1.53.19.81.28h0l.93.29h0l.94.25h0q-.1,1.29-.24,2.43v0l-.09.69s0,.07,0,.11c0,.2,0,.4-.08.59l0,.18c0,.16,0,.32-.07.47s0,.18,0,.27-.05.23-.07.34-.07.37-.11.54v0c-.29,1.23-.66,2.77-1.05,4.51,0,.1,0,.21-.07.31-1.41,6.39-2.88,15.24-.2,20.73a58.43,58.43,0,0,1,.66-14.18s-1.49,17,3.79,27.37a66.91,66.91,0,0,0,1.4,6.55q.2.74.42,1.5c.15.51.31,1,.48,1.55.33,1,.71,2.09,1.13,3.12.31.77.65,1.53,1,2.25.13.24.25.48.38.71a16.9,16.9,0,0,0,2.1,3.11l.17.31.07.11.22.41.17.31.41.73.28.52.32.58L73.36,334c1.52,2.78,2.79,5.38,4,7.87l.27.57c1.36,2.86,2.64,5.58,4.12,8.28l.3.54c.41.72.83,1.44,1.27,2.16.22.36.45.72.68,1.08l.57.87.52.76c.38.54.77,1.09,1.18,1.64.28.36.56.73.86,1.1l.52.65c.35.43.71.85,1.08,1.28l.76.87,1.06,1.14c.45.48.92,1,1.41,1.45,1.28,1.27,2.68,2.57,4.23,3.9,1,.83,2,1.66,3,2.52,0,0-.78-1-2-2.75l-.58-.85-.62-.95a88.22,88.22,0,0,1-5.47-9.56,85,85,0,0,0,10.53,12.59h0l1.07,1,0,0,1.07,1,.1.09,1.07,1c.66.59,1.35,1.17,2,1.75l1,.85a57.18,57.18,0,0,0,11.93,7.42c2.6,1.18,5.27,2.2,8,3.12l.84.28c1.93.65,3.87,1.23,5.8,1.78,1.24.36,2.49.7,3.72,1s2.21.58,3.3.85l3.25.82,1.59.4,2.8.7,1.83.48c1,.26,2,.52,2.94.79s1.67.48,2.48.73l.75.23,1.76.58.9.32a31.7,31.7,0,0,1,7.17,3.47,2.52,2.52,0,0,0,1.53-2.42c0-.11,0-.23,0-.36s20.4-1.3,33-9.46a3.48,3.48,0,0,1-1,1.31,8.56,8.56,0,0,1-1.83,1.29,54.06,54.06,0,0,0,7.41-2.93,42.71,42.71,0,0,0,4.09-2.24,26.55,26.55,0,0,0,5-3.92c.62-.64,1.21-1.22,1.79-1.76,1.51-1.39,2.89-2.49,4.17-3.5l1.48-1.17a26.18,26.18,0,0,0,3.82-3.63l.27-.34.42-.54c1-.84,2-1.66,2.86-2.46s1.76-1.6,2.58-2.37l.48-.39a33.12,33.12,0,0,0,7.16-7.58,13.59,13.59,0,0,1-.63,1.58l-.12.25-.27.54c-.05.1-.1.2-.16.3-.21.4-.46.83-.74,1.29-.08.11-.15.23-.22.35l-.49.72c-.34.49-.72,1-1.14,1.52a24.44,24.44,0,0,1-1.79,2,57.18,57.18,0,0,0,9.38-8.77c.53-.64,1.06-1.3,1.58-2,.31-.41.61-.83.9-1.25.14-.2.27-.39.39-.58.45-.67.87-1.36,1.26-2.06A23.6,23.6,0,0,0,250,344s.93,3.16-1.48,7.24a42.3,42.3,0,0,0,3-5.65c.13-.29.26-.58.39-.89.22-.5.44-1,.67-1.58s.54-1.4.82-2.15l.27-.74c.16-.46.32-.94.48-1.43l.24-.72a79.45,79.45,0,0,0,3-13.14l0-.08.61-1.1.08-.14.25-.46.31-.57c1.46-2.65,1.58-2.85,1.58-2.85,4.94-5.61,6.92-18.79,6.92-18.79,2.09-4.12,3.12-9.28,3.6-14,2.58-6,1.71-15.36.27-21.58-.11-.47-.22-.93-.32-1.37l-.39-1.66,0-.13c0-.16-.07-.32-.1-.49l0-.16c0-.12-.05-.25-.07-.38l0-.18c0-.13-.05-.26-.07-.39l0-.19-.06-.43,0-.18-.06-.49,0-.15-.06-.56,0-.12-.06-.63v-.08c0-.23-.05-.48-.07-.72h0l.8-.21.09,0,.67-.21.12,0,.58-.22.13-.05.51-.23.14-.07c.16-.08.31-.17.46-.26l.13-.08.42-.29.11-.08a4.4,4.4,0,0,0,.39-.35l.08-.07a6.14,6.14,0,0,0,.42-.47h0c.25,0,.5,0,.76-.08h.13l.75-.13h0a10.82,10.82,0,0,0,2.15-.7l.17-.07A11.45,11.45,0,0,0,280.8,252a20.15,20.15,0,0,0,5.61-7.35c.1-.21.19-.41.29-.61.26-.56.5-1.12.73-1.69.37-.9.7-1.81,1-2.71q1.41-4.19,2.47-8.45c.41-1.66.8-3.31,1.14-5,.15-.75.3-1.51.44-2.27a147.57,147.57,0,0,0,2.34-27.73h0Q294.8,190.3,294.4,184.38ZM60,112.64c-.23.74-.44,1.48-.65,2.22a.83.83,0,0,1,0,.15c-.19.71-.37,1.41-.54,2.12,0,.07,0,.15,0,.22-.17.69-.32,1.38-.46,2.06l-.06.27c-.13.68-.26,1.36-.38,2a2.56,2.56,0,0,0-.05.27q-.18,1-.33,2l0,.25c-.1.69-.19,1.38-.28,2.08a1.23,1.23,0,0,1,0,.19c-.08.72-.15,1.43-.22,2.15v.08c-.14,1.48-.23,3-.29,4.48a.76.76,0,0,1,0,.15l-.06,2.15v.25c0,.7,0,1.41,0,2.12v.31c0,.7,0,1.41,0,2.12v.33q0,1.06.06,2.16c0,.1,0,.21,0,.32,0,.73,0,1.47.09,2.21,0,.1,0,.2,0,.29,0,.76.08,1.53.13,2.31a1.34,1.34,0,0,0,0,.2c0,.81.1,1.63.16,2.47,0,.4.06.78.09,1.16,0,.1,0,.21,0,.31h0a3,3,0,0,0-1.42.49h0l-.19-.08-.13-.05c-2.38-.91-4.92-1.84-7.43-1.42h0c0-.08-.05-.15-.07-.22a1.64,1.64,0,0,0-.18-.35.16.16,0,0,0,0-.07,1.63,1.63,0,0,0-.23-.29l0,0a1.71,1.71,0,0,0-.26-.21l0,0a2,2,0,0,0-.32-.17l0,0a2.1,2.1,0,0,0-.74-.13h0a1.83,1.83,0,0,0-.76.17h0c0-.21,0-.42,0-.63V149c-.25-5.13,1.31-8,2-9.06h0a.76.76,0,0,0,.08-.11l0,0,.16-.21,0,0,0,0,0,0v0h0c2.11,0,3.09-.49,3.55-1a1.56,1.56,0,0,0,.2-.27.76.76,0,0,0,.09-.18,1,1,0,0,0,.09-.53h0q.11-.93.24-1.86c0-.21.07-.41.1-.62.06-.41.13-.82.2-1.23,0-.24.09-.49.14-.73s.14-.73.22-1.09.11-.52.16-.77.17-.7.25-1,.12-.52.19-.78.19-.69.28-1,.24-.85.37-1.27.21-.72.33-1.08.22-.68.34-1,.15-.44.23-.67.25-.7.38-1,.15-.39.22-.58c.14-.37.29-.74.44-1.11.06-.15.12-.31.19-.46.16-.4.33-.8.5-1.2l.08-.17A72.13,72.13,0,0,1,60,112.64ZM287.72,152a1.82,1.82,0,0,0-.75-.23h0a2.05,2.05,0,0,0-.74.07h0l-.34.14,0,0a1.73,1.73,0,0,0-.28.19l0,0a2.06,2.06,0,0,0-.25.26l-.05.07a2.63,2.63,0,0,0-.2.33h0l-.09.21h0c-2.45-.64-5.07.06-7.52.77L277,154l-.22-.16h0a1.71,1.71,0,0,0-.23-.13l0,0-.23-.11-.06,0-.25-.08-.09,0-.24,0-.13,0-.22,0-.21,0-.19,0h-1l-.5,0h0c0-.34.06-.68.11-1v-.06c0-.11,0-.22.05-.33v-.08c0-.21.07-.42.11-.64l0-.08c0-.1,0-.2.05-.3a1.29,1.29,0,0,0,0-.19,2.86,2.86,0,0,1,.07-.28c0-.11,0-.21.07-.32s0-.23.08-.35l.09-.33.06-.24c0-.12.07-.25.11-.38a1.05,1.05,0,0,1,.05-.19c.05-.19.11-.39.17-.59a1.21,1.21,0,0,0,0-.18c.05-.16.11-.32.16-.49l.06-.19c.07-.23.14-.45.22-.69.36-1.06.66-2,.93-2.79l1-2.92.91-2.75a1.22,1.22,0,0,1,.17.16,6.47,6.47,0,0,1,1.17,1.72l0,0a11,11,0,0,1,1,3.29v0a.69.69,0,0,1,0,.13v.05s0,0,0,.08v0a.43.43,0,0,0,0,0v0l0,0v0h.06l0,0v0s0,0,0,0v0s0,0,0-.06v0a.52.52,0,0,1,0-.11v-.05s0-.06,0-.09v-.07l0-.08v-.18s0-.07,0-.1v-.32s0-.08,0-.13v-.1s0-.09,0-.15V142c0-.06,0-.11,0-.17v-.08c0-.07,0-.14,0-.21v0c0-.36,0-.76.05-1.2v0c0-.1,0-.21,0-.31v0c0-.11,0-.22,0-.33v0c0-.11,0-.23,0-.34v-.41c0-.12,0-.25,0-.38h0a95.07,95.07,0,0,0-1.07-16.19c.21.65.41,1.31.6,2a1.82,1.82,0,0,0,.07.25c.16.58.32,1.16.46,1.75,0,.13.07.27.1.4.13.53.26,1.07.37,1.61,0,.17.08.34.11.52.11.5.21,1,.3,1.51,0,.2.07.41.11.61.08.48.15,1,.22,1.44,0,.23.07.45.1.68.06.47.12.95.17,1.42,0,.24.05.47.08.7l.12,1.5c0,.21,0,.42,0,.64.05.7.08,1.41.09,2.12h0a1.45,1.45,0,0,0,.66,1.37l.15.11.11.07a3.59,3.59,0,0,0,.68.33l.24.08a9.4,9.4,0,0,0,1.9.35l0,0h0l.19.31h0C287.14,143.05,288.68,146.32,287.72,152Z"/><path d="M180,33.22l.22.11A1.77,1.77,0,0,0,180,33.22Z"/><path class="cls-3" d="M295.33,143.36h0a37,37,0,0,0-2.41-8.64c-.05-.21-.09-.41-.14-.62a30.61,30.61,0,0,0,1.09-10.35,14.4,14.4,0,0,0,.68-3.49,82,82,0,0,0-2.31-29.58C288.38,75.82,278.59,55,254,39a67.57,67.57,0,0,0-6.66-8.3c-7.75-8.38-22-13.9-29.8-16.44-12.05-3.93-24.32-6-32.8-5.54-6.77.37-11.68.54-15.25.59l1-2.23c-3.42-1.55-13.22-4.62-30.36.44a67.44,67.44,0,0,1-19.69,2.7,65.31,65.31,0,0,0-14.32,1.44C94.85,14.3,90.15,17.8,88.18,20.26l-1.63,2A122.26,122.26,0,0,0,74.25,31c-1.06.84-2.11,1.73-3.18,2.7-32,13.09-46.59,34.57-53.2,50.43a83.76,83.76,0,0,0-6.62,32.45,14.88,14.88,0,0,0,.32,3.54,30.53,30.53,0,0,0,0,10.39c-.08.22-.15.43-.22.65a37.64,37.64,0,0,0-3.28,8.39c-8.33,30.69-9.27,56.57-2.88,79.14,4.32,15.24,13,20.63,19.6,22.45a21.79,21.79,0,0,0,5.87,2.93c-2,9.22-3.25,19.19.63,27.12l.68,1.39A47,47,0,0,0,35.1,283c.78,4.37,3.1,14.84,8.27,21.45l7.4,13.46c1.61,3,2.95,5.78,4.25,8.5,4.71,9.93,13.25,24.92,29.65,34.36L80.85,356a74.53,74.53,0,0,0,20.73,14.62c9.09,4.11,18.66,6.5,27.11,8.6,7.72,1.93,15,3.75,18.44,6.1l4.46,3.06,5-2a12.37,12.37,0,0,0,4.05-2.66c6.44-.85,17.09-2.83,26.49-7.31l-1.38,2.07c1.37-.4,15.17-5.55,22.57-13.18a46,46,0,0,1,5.17-4.52,40.13,40.13,0,0,0,6.84-6.4c1.68-1.43,3.27-2.85,4.74-4.24l.2-.16-2.18,3.84c2-1,13-9.63,18.73-18.73l-1,3.61c3-3.11,9.82-14.1,12.58-31.45l1.53-2.78c5.17-6.61,7.49-17.08,8.27-21.45a47,47,0,0,0,3.11-10.41l.68-1.39c4-8.08,2.58-18.26.52-27.61l.9-.51c6.71-1.29,15.8-5.94,21.63-20.67C298.7,200.41,300.44,174.56,295.33,143.36ZM166.54,19.42l-1.56,0L166.49,16A9.08,9.08,0,0,1,166.54,19.42Z"/><path class="cls-4" d="M46.69,227.25c-5.84,2.89-12.56,5.88-19,4.2-7.42-1.93-10.91-9.07-12.73-15.5-6.83-24.13-3.66-49.56,2.9-73.74,1.38-5.08,4-11,10-12.06,3-.52,6.1.44,9,1.38,3.86,1.27,8.12,2.86,9.68,6.12Z"/><path class="cls-4" d="M22.79,133.37s-3.39-7.91-.18-15.05c0,0-1.42,1.21-1.24-1.67,0,0-3.32-60.41,70.79-79.22l7.91,10.11S37.81,73.36,32.21,116.59c0,0,.33,2-4.61,2,0,0-5.93,5.33-.66,18.24C26.94,136.8,24.24,141.72,22.79,133.37Z"/><path class="cls-5" d="M45.2,234.56c-2.84,1.88-6.43,1.38-9.71.44-5-1.44-7.34-3.07-7.15-8.31.91-26,1.84-66.66,7.12-92.16.55-2.66,1.85-3.56,4.75-3.36,2.72.19,4.76,1.05,5.31,3.72Z"/><path class="cls-6" d="M23.64,218.76a2.25,2.25,0,0,1-3.5-.44A44.22,44.22,0,0,1,16,191.54c.25-1.5.69-3.14,2.22-3.94a1.37,1.37,0,0,1,.56-.18c.84-.08,1.18.62,1.38,1.21a74.4,74.4,0,0,1,3.91,29.12,1.61,1.61,0,0,1-.47,1Z"/><path class="cls-5" d="M24.21,169.87l1-.81a6.65,6.65,0,0,0,2.41-3.75c1.47-6.42,5-24.58.31-35.42A2.5,2.5,0,0,0,24,129.3a12.63,12.63,0,0,0-3.37,6.19c3.42,5.27,1,23.11-.58,32.51C19.74,170,22.48,171.21,24.21,169.87Z"/><path class="cls-4" d="M247.81,227.57c5.51,3.31,11.9,6.8,18.51,5.61,7.59-1.36,11.81-8.21,14.28-14.48,9.3-23.52,8.78-49.09,4.75-73.67-.85-5.16-2.8-11.29-8.67-12.77-3-.74-6.12,0-9.09.71-4,1-8.38,2.23-10.27,5.37Z"/><path class="cls-4" d="M281.33,135.85s4.19-7.62,1.74-15c0,0,1.29,1.32,1.41-1.57,0,0,9.56-59.92-62.3-84.23l-8.92,9.47S272.59,75,273.69,118.43c0,0-.53,1.93,4.39,2.3,0,0,5.35,5.76-1.24,18.23C276.84,139,279,144.06,281.33,135.85Z"/><path class="cls-5" d="M248.53,235c2.64,2.09,6.27,1.86,9.63,1.17,5.17-1.06,7.63-2.51,8-7.74,1.78-26,5.07-66.54,2.45-92.34-.28-2.69-1.48-3.68-4.39-3.7-2.73,0-4.85.69-5.67,3.31Z"/><path class="cls-5" d="M276.14,172.1l-.89-.82a6.66,6.66,0,0,1-2.08-4.08c-.8-6.58-2.36-24.81,3.37-35.21a2.52,2.52,0,0,1,4-.29,12.06,12.06,0,0,1,2.71,6.43c-3.95,5-3.39,22.93-2.78,32.42C280.58,172.53,277.72,173.56,276.14,172.1Z"/><path class="cls-6" d="M272,218.67a2.25,2.25,0,0,0,3.51-.36,44.32,44.32,0,0,0,4.93-26.68c-.2-1.5-.59-3.15-2.09-4a1.55,1.55,0,0,0-.56-.19c-.83-.09-1.19.59-1.41,1.18a74.61,74.61,0,0,0-4.82,29,1.62,1.62,0,0,0,.44,1Z"/><path class="cls-7" d="M75.07,87.64s-7.34,20.9-8.47,33.87a63.38,63.38,0,0,1-8.46,27.08c-3.38,6.21-5.64,32.72-9,54.16s-3.39,79.54,47.95,115.08,98.15,13.54,110,3.95,37.8-46.26,39.49-91.39,2.26-53,3.38-62.62-6.2-24.26-8.46-33.28-1.69-20.31-1.13-28.77S239.79,82,205.94,77,92,58.28,75.07,87.64Z"/><g class="cls-8"><path class="cls-9" d="M126.43,145.8a32.42,32.42,0,0,1-3.8-.4c-1.28,0-2.77.56-3,1.81s1.1,2.48,2.19,3.38c3.91,3.21,7.44,8.43,7.61,13.48a26,26,0,0,1-4.16,14.36,12,12,0,0,0-1.67,3.33,3.23,3.23,0,0,0,1,3.38,3.6,3.6,0,0,0,2.81.34c2.32-.51,4.25-2.07,6.06-3.61,3-2.56,4.62-5.35,6.83-8.63s3.57-7.28,3-11.19a16,16,0,0,0-4.73-8.66,42.4,42.4,0,0,0-8-6Z"/><path class="cls-9" d="M141.41,167.55a23.29,23.29,0,0,0-6,10.8c-.19.76-4.32,7.14-4.14,7.9.25,1.05,5.37-4.4,10.23-7.28a15.57,15.57,0,0,1,17.41.87c2.35,1.73,8.48,7.9,10.22,8.19.38.07-6.92-13.17-10.11-18.09-2.75-3.16-6.26-6-10.22-5.91-3.59.08-2.7-.09-5.57,2.28Z"/><path class="cls-9" d="M132.14,220.47c-.28-1.51,0-2.83,1.46-3.18s1.8,0,3.08.78,2.42,1.77,3.73,2.49c3.53,2,10.25,1.61,13.47-.89,1.29-1,2.39-2.35,3.87-3a2.5,2.5,0,0,1,3.71,2.78,4.58,4.58,0,0,1-1.67,3.49c-6.43,4.17-10.49,7.79-17.46,5.73-3.59-1.07-7-4.66-9.68-7.19Z"/><path class="cls-9" d="M162.83,218.56l3.09.82,8.1-2.62-.69-5s-3.32,4.72-5.07,4.72,1.42-4,.25-6.46-4.6-2.54-4.35-1S165.67,217.5,162.83,218.56Z"/><path class="cls-9" d="M130.34,218.56l-3.09.82-8.11-2.62.69-5s3.32,4.72,5.08,4.72-1.42-4-.25-6.46,4.59-2.54,4.34-1S127.5,217.5,130.34,218.56Z"/><path class="cls-9" d="M253,185.34c-1.09-34.46,2.11-69.63-12.86-100.68-3.34-6.93-17.82-11.85-23.66-16.85-9.31-8-22.32-10.24-34.56-9.66-10.55.51-20.89,2.89-31.33,4.5L150,61.58,148.54,63l-1.7.24-1.7-.24-1.45-1.38-.61,1.07c-10.44-1.61-20.79-4-31.33-4.5-12.24-.58-25.25,1.7-34.56,9.66-5.85,5-9.79,11.84-13.12,18.76-15,31.05-19.83,66.05-20.92,100.5-.5,15.7-.2,31.79,5.2,46.54,7.52,20.57,24,36.32,40,51.29,3.92,3.68,7.9,7.39,12.62,9.94,8.5,4.6,18.55,5,28.2,5.32,2.38.08,4.91.12,7-1.1a11.55,11.55,0,0,0,3.75-4.32c3.67-6.25,5.88-15.23.41-20,3.64-.87,4.8-6.15,2.5-9.09a7.19,7.19,0,0,0-1.17-1.17q3.82.4,7.68.47c.72,0,1.45,0,2.17,0q-.3.34-.57.69c-2.3,2.94-1.14,8.22,2.5,9.09-5.47,4.75-3.26,13.73.41,20a11.61,11.61,0,0,0,3.74,4.32c2,1.22,4.58,1.18,7,1.1,9.66-.31,19.71-.72,28.21-5.32,4.72-2.55,8.7-6.26,12.61-9.94,16-15,32.49-30.72,40-51.29A134.59,134.59,0,0,0,253,185.34Zm-167.27-83c5.16-3.68,14.51-11.23,33-10.36,6.34.3,14.62.62,20.91-.18.94-.12,1.91-.24,2.88-.38a30.36,30.36,0,0,1,8.62,0c1,.14,1.94.26,2.89.38,6.29.8,14.57.48,20.91.18,18.48-.87,27.83,6.68,33,10.36,1.79,1.28,3.43,3.21,2.6,5.6a4.58,4.58,0,0,1-2.35,2.56c-2.6,1.3-5.38.61-8.08.19-10.45-1.63-35.27-1.75-48.84-.62a54.6,54.6,0,0,1-8.86,0c-13.56-1.13-38.38-1-48.84.62-2.69.42-5.47,1.11-8.08-.19a4.59,4.59,0,0,1-2.34-2.56C82.31,105.51,84,103.58,85.75,102.3Zm21.88,151.38a7.32,7.32,0,0,1,.45-1.21l-.57,2.63A3.81,3.81,0,0,1,107.63,253.68Zm114.83-93.85a3.19,3.19,0,0,1-2,.41c-3.37-.38-5.46-3.52-8.39-5-2.1-1.1-6.9-3.53-15.65-2.86a1.23,1.23,0,0,0-.11,2.45c11.48,1.88,12.18,6.18,13.38,7.14,1.59,1.28,2.35,3.73,1.24,5.44s-4.23,1.68-4.92-.24c-.87,5.17-3,7.77-8.27,7.46-5.63-.33-12.75-2.78-18.33-1.49a3.07,3.07,0,0,0-1.88,1.25c-1.42,2.11.87,4.28,2.93,5.33,8.1,4.11,14.78,4.94,24,2.17a5.34,5.34,0,0,1,4.11.36c3.22,1.75,2,5.53,0,7.69-4.5,4.81-11.86,5.51-18.41,4.86s-12.54-1-22-8.28c12.81,13.47,9,19.08,5.54,24.69-.64,1-1.45,2.11-.91,3.36a1.52,1.52,0,0,0,1.77.83c3.79-1,3.88-4.2,4.19-7a5.06,5.06,0,0,1,2.62-4.24,5,5,0,0,1,1.89-.57c9.19-1.06,16.61-.55,26.17,1,2.63.43,6.19.91,7.58,3.19a6.51,6.51,0,0,1,.72,4.23c-1.59,11.66-3.46,15.5-9.93,24.58a7.47,7.47,0,0,1-2.23,2.28c-2.63,1.48-6-.49-7.62-3a43.41,43.41,0,0,0-3.27-4.67c-4.74-6.1-13.81-4.94-21.56-6.46a3.34,3.34,0,0,1-2.74-3c0-.69.15-1.22,1.12-2.27l-6.86,2.81c-3.15.79-5.17,0-7.87,3.15-5.17,4.94-11.09,3.45-9.33,6.52,2.93,5.11,18.76,12.94,21.59,14.84a17.88,17.88,0,0,0,6.31,3.1c3.15.61,1.55-2.6,4.68-1.86a8.33,8.33,0,0,1,6.07,5.76,3.47,3.47,0,0,1-.29,2.68,3.13,3.13,0,0,1-.84.95v-.16l-2.28-5.24-7.79-1.61c3.93,3.17-.39,5.09-2.15,5.7-.68.05-1.24.12-1.57.17a169,169,0,0,1-50.7.41c-3.17-.65-7.44-2.14-5-5.34,3.61-4.64-6.53.62-7.33,1a8.4,8.4,0,0,1,5.53-4.37c3.12-.74,1.53,2.47,4.68,1.86a17.88,17.88,0,0,0,6.31-3.1c2.83-1.9,18.66-9.73,21.59-14.84,1.76-3.07-4.16-1.58-9.33-6.52-2.7-3.15-4.73-2.36-7.87-3.15l-6.86-2.81c1,1,1.17,1.58,1.12,2.27a3.35,3.35,0,0,1-2.74,3c-7.76,1.52-16.86-4-21.6,2.1-1.85,2.37-2.58,5.44-4.23,8s-5,4.49-7.62,3a6.85,6.85,0,0,1-2.23-2.28c-4.1-6.21-7.64-12.21-8.15-23.28a7.37,7.37,0,0,1,.72-4.24c1.39-2.28,6.49-3.51,9.15-3.77,7.25-.71,14.08-1.69,23.28-.64a5.33,5.33,0,0,1,2,.6,4.65,4.65,0,0,1,2.58,4c.32,2.94.41,6.3,4.65,7.13a1.19,1.19,0,0,0,1.3-.66c.56-1.26-.26-2.35-.9-3.38a13.53,13.53,0,0,1,3.65-17.57c-6.47-1.2-13.07.5-19.62,1.16-7.23.72-15.46-.21-19.72-6.5a4.31,4.31,0,0,1-.28-4.54c1.56-2.73,5.19-1.93,8-1.23a35.5,35.5,0,0,0,24.22-2.81c2.06-1.05,4.35-3.23,2.92-5.34a3.14,3.14,0,0,0-1.9-1.25c-5.57-1.27-11.13.95-16.74,1.28-5.23.3-11.51-2.07-12.38-7.24-.68,1.92-3.81,2-4.92.24s-.34-4.16,1.25-5.44c1.14-.92,1.83-4.89,12-6.88a1.41,1.41,0,0,0-.22-2.8C88,152,83.62,154.17,81.64,155.2c-2.92,1.52-5,4.66-8.38,5a3.19,3.19,0,0,1-2-.41c-2.75-1.67-.28-5.94,2.41-7.75,12.67-8.49,33.24-12,47.35-6.18,5.54,2.27,9.75,6.55,16.06,7a.79.79,0,0,0,.6-.24c1.92-2.05.64-5.44-1.16-7.6-8.26-9.93-24.91-15.62-37.64-17.85-2.8-.49-6.38-2.29-5.43-5.1a3.38,3.38,0,0,1,1.4-1.76c9.15-5.93,34.09-4.93,47.81-6a53.92,53.92,0,0,1,8.43,0c13.72,1.09,38.66.09,47.81,6a3.43,3.43,0,0,1,1.4,1.76c.95,2.81-2.63,4.61-5.43,5.1-13.61,2.39-31.7,8.72-39.23,20a4.42,4.42,0,0,0,.45,5.5c1.37,1.45.84.33,2.81-.12,5.13-1.15,9-4.69,13.83-6.68,14.11-5.78,34.68-2.31,47.35,6.18C222.74,153.89,225.2,158.16,222.46,159.83Z"/></g><path class="cls-10" d="M115.16,195.81a1.31,1.31,0,0,0-1.39-.74c-3.82.52-6.58.46-8.65.66-8.54.82-14.81-2.58-23.35-3.51-2.28-.25-3.46-1.5-5.86-2.63a9,9,0,0,1-4.81-5.72,26.22,26.22,0,0,1-1.41-8.47c.13-2.23,1.22-4.79,3.41-5.18,2-.35,3.76,1.23,5,2.86,1.47,2,2.78,4.45,5.64,4.6a2.35,2.35,0,0,0,2.61-2.75c-.27-1.63-2.19-2.11-3.41-3.13-2.06-1.71-2-4.79-2.23-7.46s10-7.52,7.41-7.76c-1.08-.1-6.81,1.22-10,5.73-.85,1.18-2.24-2.47-2.7-2.4-1,.16-1.18,2.32-.68,4.26.23.85-12.46-1.68-1.17-14.9a48.49,48.49,0,0,1,7.26-2.57L85.66,142s.76-3.69-7.75-1-9.66-3.79-9.15-5.82,3.3-19.57.13-23.25-5.6-4.2-6.36-2.54-7.62,39.52-8.26,39.52c-.42,0-.56,1.76-.61,3-3,14.93-4.5,30.14-5.63,45.33-1.82,24.45-2.43,50.61,10.28,71.57,3.58,5.89,8.43,11.4,14.91,13.78a7,7,0,0,0,2.85.54,21,21,0,0,0,8.64,4c5.15,1,11.25-.38,13.91-4.9,1.41-2.38,1.66-5.25,1.88-8q1-12.6,2-25.21a1,1,0,0,0-.38-.89c-.51-.39-1,0-1.36.36-2.2,2.3-3.14,5.74-5.79,7.51a10.32,10.32,0,0,1-11.34.3c-4.73-2.84-8-6.67-11.27-12.87-.84-1.63-2.15-9.22-7.12-16.78-2.66-4-2.66-7.35-3.57-12.11-.8-4.12-3.46-15.6.29-17.49,2.07-1.05,4.28-2.65,6.56-2.23,13.52,2.48,29,6,42.58,3.65C112.59,198.1,115.82,197.31,115.16,195.81Z"/><path class="cls-10" d="M123.5,165.26a2,2,0,0,0-.5-1.06l-3-3.52-1.27-2.19a4.41,4.41,0,0,0,4.92,1.35c.8-.37,3.15-.3,3.31-1.17.25-1.36-.65-2.28-1.5-3.1l-3.6-3.5c-.47-.45-1-1-.68-1.72a1.41,1.41,0,0,1,1.67-.75,14.73,14.73,0,0,1,11,16.41c-.71,6.12-7.72,13.71-7.73,13.72a1,1,0,0,1-1.61-1.11,13.87,13.87,0,0,0,2.69-6.12,2.92,2.92,0,0,0-3.27-3.3c-3.93.51-27.66,3.15-32.94-.46-3.26-2.22,24.7,1.21,31.57-2.84C125,164.06,123.5,165.26,123.5,165.26Z"/><path class="cls-10" d="M177.42,165.51a2,2,0,0,1,.49-1.06l3-3.51,1.27-2.2a4.41,4.41,0,0,1-4.92,1.35c-.8-.37-2.72-.16-2.88-1-.25-1.36.65-2.27,1.5-3.1,1.2-1.16,3.71-3.26,4.91-4.43.47-.45,1-1,.67-1.72a1.42,1.42,0,0,0-1.66-.76c-7.48,2-13.59,9.5-12.7,17.21.7,6.12,7.71,13.71,7.72,13.72.78.79,2.41.19,1.61-1.1a11.16,11.16,0,0,1-2.26-5.45c-.28-1.91.71-3.91,3.28-3.3,7.89,1.88,27.64,2.29,32.93-1.32,3.26-2.22-25.13,1.39-32-2.66C175.92,164.31,177.42,165.51,177.42,165.51Z"/><path class="cls-10" d="M80.86,69.24a40.15,40.15,0,0,0-15.3,30.17c4-2.89,8-8.32,12-11.22,3.79-2.75,7.63-8.07,11.94-9.92,5.74-2.46,16.72-3.08,22.87-4.13,14-2.38,21.23-.92,34.25,1.43,6.74,1.22,13,4.51,19.8,5.42a1.22,1.22,0,0,0,.68-.09c.79-.37.56-1.27.29-2l-.85-2.11a1.13,1.13,0,0,1,1.4-1.48l22.52,5c7.39,2.47,15,5,20.91,10.08a18.07,18.07,0,0,0,4.61,3.35c1.77.73,4.09.55,5.23-1,1.34-1.79.94-5,3.11-5.65a2.69,2.69,0,0,1,2,.27,39.33,39.33,0,0,1,10,7.72c1.08,1.16,2.27,2.47,4,2.13a3.29,3.29,0,0,0,2.2-1.67c1-1.74.7-3.75.28-5.61C239.16,74,226.74,61.25,213,52.15c-6.55-4.35-13.6-8.12-21.25-9.9-6.57-1.53-13.41-1.54-20.15-1.16-22.59,1.26-45.13,6.95-64.73,18.25Z"/><path class="cls-10" d="M177.78,209.85c-1.06,3.71-3.75,5.56-6.91,7.17-2.09,1.06-6.41,2.56-5.79.31.47-1.71.93-3.35-.21-5-.33-.48-.65-.37-.67.21a18.14,18.14,0,0,1-.41,3.12c-.68,3-2.71,3.36-5.59,4.59a5.94,5.94,0,0,0-3.19,2.85c-1.64,3.47-5,4.57-8.47,4.71-3.42-.14-6.82-1.24-8.46-4.71a5.94,5.94,0,0,0-3.19-2.85c-2.88-1.23-5.12-1.56-5.79-4.59a17.2,17.2,0,0,1-.41-3.12c0-.58-.34-.69-.67-.21-1.14,1.64-.41,3.28.07,5,.62,2.25-3.78.75-5.87-.31-3.16-1.61-5.85-3.46-6.91-7.17a.43.43,0,0,0-.84.12c0,2.12,1.77,4.39,3.3,6.37,5.46,7.08,16.26,5.12,19.4,9.58.27.39.76.6.93,1,.4,1,9.1,3.28,8.08,3.73-1.34.58-.43,1-1,2.72-.48,1.45-12,3.32-10.71,4.08,4.58,2.6,1.9-3,6.28-3.54l.31,0,0,0a10.87,10.87,0,0,0,2.23-.5,15.41,15.41,0,0,0,3.27-1.26,15.85,15.85,0,0,0,3.27,1.26,11.13,11.13,0,0,0,2.24.5l0,0,.31,0c4.37.54,1.7,6.14,6.27,3.54,1.34-.76-10.12-2.86-10.6-4.31-.55-1.69,0-2.37-1.35-3-1-.45,8-2.23,8.35-3.26.17-.43.66-.64.93-1,3.14-4.46,14.05-3,19.4-9.58,1.58-1.94,3.25-4.25,3.3-6.37A.43.43,0,0,0,177.78,209.85Z"/><path class="cls-10" d="M252.56,155.66h.08s0-4.06-.64-4.06-7.49-37.87-8.26-39.52-4.32-1.15-7.49,2.54-.38,21.22.12,23.25-.63,7.12-9.15,4.45-7.75,1-7.75,1l4.91,5.22.11,0a.32.32,0,0,0,.11.25c11.91,13.59,1.37,16.18,1.6,15.32.51-1.94.35-4.1-.67-4.26-.47-.07-1.86,3.58-2.7,2.4-3.23-4.51-10.19-6.61-9.83-5.59.55,1.58,6.86,6,6.65,8.61s.38,4.76-1.67,6.47c-1.23,1-3.14,1.5-3.42,3.13a2.36,2.36,0,0,0,2.62,2.75c2.85-.15,4.16-2.59,5.64-4.6,1.18-1.63,3-3.21,4.94-2.86,2.2.39,3.29,2.95,3.41,5.18.16,2.87-1.08,6-2.53,8.47a14.13,14.13,0,0,1-6.1,5.72c-2.4,1.13-3.59,2.38-5.87,2.63-8.53.93-14.8,4.33-23.34,3.51-2.08-.2-4.83-.14-8.65-.66a1.31,1.31,0,0,0-1.39.74c-.67,1.5,2.57,2.29,4.06,2.55,13.54,2.33,29.06-1.17,42.57-3.65a18,18,0,0,1,8.75,1.31c3.75,1.89,1.09,13.38.29,17.5-.91,4.75-4.82,9.41-6.43,14-.6,1.73-1.37,3.43-1.81,5.22-.27,1.1-.32,2.23-.52,3.35a12.38,12.38,0,0,1-3.1,7c-3.6,4.17-9.47,10.94-14.19,13.78-3.63,2.18-9.72,1.44-13.24-.91-2.65-1.77-3.59-5.21-5.79-7.51-.35-.38-.85-.75-1.37-.36a1,1,0,0,0-.37.89q1,12.61,2,25.21c.22,2.77.47,5.64,1.87,8,2.67,4.52,8.77,5.93,13.91,4.9,3.14-.63,9.92-2,12.45-4a7.09,7.09,0,0,0,2.86-.54c6.47-2.38,11.32-7.89,14.9-13.78,12.72-21,12.11-47.12,10.29-71.57C249.28,182,255,170.3,252.56,155.66Z"/><path class="cls-10" d="M173.86,258.22a35.91,35.91,0,0,0-5.7,3.14,11.6,11.6,0,0,1-7.07,2.17c-4.5-.15-10.88-.44-15.34-.22-4.1.2-9.88.13-14.72.24a11.48,11.48,0,0,1-7.08-2.28,36.09,36.09,0,0,0-6.12-3.44c-1.89.12-2,1.27-1.1,5.61,1.28,6.16,5.08,8.19,7.89,8.82a6.33,6.33,0,0,0,2.6,0h0a3.78,3.78,0,0,1,2.3.26c5.27,2.39,8,4.95,6.62,14.87-.23,1.67,21.6,1.79,21.23-.2-1.93-10.34,1.19-13,4.17-14.41a3.64,3.64,0,0,1,2.49-.26l.13,0a6.3,6.3,0,0,0,3-.06c2.89-.73,6.42-2.84,7.64-8.72C175.64,259.7,175.62,258.44,173.86,258.22Z"/><path class="cls-3" d="M93.05,160.34c-.83.89-6.43,5.19-2.85,7.53,1.53,1,4.75,2,15.44,2,13.3,0,22.26-2,20-4.11-3-3-8-7.1-20.94-6.86C97.39,159.07,95.26,158,93.05,160.34Z"/><path class="cls-4" d="M132.06,161.07c1,3.4-2,8.61-2.8,4.43-.44-2.44-1-2.94-1.41-2.93a.37.37,0,0,0-.29.57c.94,1.56.16,2.7-.75,2.9a1.57,1.57,0,0,1-1.49-.48c-1.59-1.7-5.26-4.06-10.88-5.76-6.27-1.9-19.6-.12-23.33,4.14-2.49,2.83.32,4.55,2.09,5.1a0,0,0,0,1,0,.09c-1.71-.25-6-.75-8,.17-2.82,1.32-1.6,5.36-1.23,6.4a.1.1,0,0,1-.14.13c-8.4-4.83-10.16-16.43-8.24-14.21A11,11,0,0,0,77.92,164a.32.32,0,0,0,.46-.2c1-4,6-6.21,9.59-7.28a.75.75,0,0,1,.63,1.35c-6.54,4.45-6,9.26-4.94,7.68,2.66-3.8,8-6,11.21-6.84,9.78-2.7,17.07-1.58,21.94.23a.67.67,0,0,0,.72-1.1c-1.48-1.5-3.63-2.06-8.81-2.76a.64.64,0,0,1,.08-1.27c9.21-.09,13.86,3,16.32,5.07a1.4,1.4,0,0,0,1,.35c.71-.07,1.38-.67-.94-3.62C121.76,151.12,130.28,154.84,132.06,161.07Z"/><path class="cls-4" d="M99.4,159.14s-2.8,10,8,9.64c6-.19,8.48-3.86,7.55-9C115,159.76,111.77,156.16,99.4,159.14Z"/><circle class="cls-3" cx="105.8" cy="162.78" r="1.49"/><circle class="cls-3" cx="109.3" cy="162.43" r="0.77"/><path class="cls-3" d="M208.44,160.34c.83.89,6.43,5.19,2.85,7.53-1.53,1-4.75,2-15.44,2-13.3,0-22.26-2-20-4.11,3-3,8-7.1,20.93-6.86C204.1,159.07,206.23,158,208.44,160.34Z"/><path class="cls-4" d="M169.43,161.07c-1,3.4,2,8.61,2.8,4.43.44-2.44,1-2.94,1.41-2.93a.37.37,0,0,1,.29.57c-.94,1.56-.16,2.7.76,2.9a1.56,1.56,0,0,0,1.48-.48c1.59-1.7,5.26-4.06,10.88-5.76,6.27-1.9,19.6-.12,23.33,4.14,2.49,2.83-.32,4.55-2.09,5.1a0,0,0,0,0,0,.09c1.71-.25,6-.75,8,.17,2.82,1.32,1.6,5.36,1.23,6.4a.11.11,0,0,0,.15.13c8.39-4.83,10.15-16.43,8.24-14.21a11,11,0,0,1-2.36,2.33.32.32,0,0,1-.46-.2c-1-4-6-6.21-9.59-7.28a.75.75,0,0,0-.62,1.35c6.54,4.45,6,9.26,4.93,7.68-2.66-3.8-8.05-6-11.21-6.84-9.77-2.7-17.07-1.58-21.93.23a.68.68,0,0,1-.73-1.1c1.49-1.5,3.63-2.06,8.81-2.76a.64.64,0,0,0-.07-1.27c-9.21-.09-13.87,3-16.33,5.07a1.4,1.4,0,0,1-1.05.35c-.7-.07-1.38-.67.94-3.62C179.74,151.12,171.22,154.84,169.43,161.07Z"/><path class="cls-4" d="M202.09,159.14s2.8,10-8,9.64c-6-.19-8.48-3.86-7.56-9C186.5,159.76,189.72,156.16,202.09,159.14Z"/><circle class="cls-3" cx="195.69" cy="162.78" r="1.49"/><circle class="cls-3" cx="192.2" cy="162.43" r="0.77"/><path class="cls-4" d="M166.27,16.32l.22.11Z"/><path class="cls-4" d="M261.82,77a26.74,26.74,0,0,1,1.83,4.11C264.09,77.85,261.82,77,261.82,77Z"/><path class="cls-4" d="M265.3,98.64a40.71,40.71,0,0,0-1.65-17.58,9.5,9.5,0,0,1-.66,2.29,105.06,105.06,0,0,0-8.67-20.86c-5.62-9.91-4.55-14.19-14.46-24.9S200,18,185.24,18.84s-28.12,1.07-28.66-.8,7-2.88,9.66-1.73c-1.39-.63-8.71-3.38-23.31.92-16.34,4.82-24.37,1.88-34.54,4.29s-12.32,5.09-12.32,5.09S102,25.27,95.26,29c0,0-5.62,2.67-14.72,9.9S64.47,56.87,59.38,60.35,48.67,73.74,46.8,79.09c0,0,2.67-6.16,8.83-6.69,0,0-4,3.48-8.57,16.87s-4.82,25.43-3.74,40.43,2.94,16.6,2.41,21.15-4.29,5.63-3.75,9.38a5.07,5.07,0,0,1,2.86-3.07,12.13,12.13,0,0,0-1,9.39c1.65,5.11,1.65,3.79.5,10.39s-2.15,12-1.65,15.33-.83,11.21-.17,19.61.5,23.57-.82,29.34-4.78,18.46-1.32,25.55a58.35,58.35,0,0,1,.66-14.17s-1.48,17,3.79,27.36c0,0,2,13.19,6.92,18.79,0,0,.37.63,7.87,14.31s8.63,23,25.83,36.67a91,91,0,0,1-8.65-14.1s11.69,18,28.93,25.77,37.65,9.09,47.11,15.58a2.5,2.5,0,0,0,1.48-2.78s20.4-1.3,33-9.46c0,0-.37,1.3-2.78,2.6,0,0,10.75-3.15,16.5-9.09,5.07-5.23,8.84-6.72,11.95-10.94,2-1.67,3.81-3.28,5.44-4.83a34.51,34.51,0,0,0,7.65-8,22.94,22.94,0,0,1-5.57,8.54s12.8-9.09,15.77-20c0,0,.92,3.15-1.49,7.23,0,0,6.52-9.6,8.82-26.29,2.69-4.9,2.87-5.21,2.87-5.21,4.94-5.6,6.92-18.79,6.92-18.79,5.28-10.39,3.79-27.36,3.79-27.36a58.35,58.35,0,0,1,.66,14.17c3.47-7.09,0-19.78-1.32-25.55-1.09-4.77-1.39-16-1.09-24.45.1-.77.2-1.55.31-2.43a39,39,0,0,0-.56-13.53c-.74-3.9,3.34-10.57,3.71-14.65s8.23-15-1.08-22.34c0,0,2.26-6.77,2.26-18s-1.69-11.85,1.13-20.31l2.82-8.46s1.79,1.45,2.32,5.2S267.71,108,265.3,98.64ZM180.09,274.09c-4.6,6.13-2.56,10.21-2.56,10.21s-1.53-1-1.28-4.59a17,17,0,0,0-1.41,7.58,2.41,2.41,0,0,1-1.27,2.36c-.76.39-1.65.26-2.16-1.78a41,41,0,0,1-2,4.14,4.52,4.52,0,0,1-1,1.2c-1.19,1-3.54,1.74-4.83-5.27,0,0-8.86.76-9.48-5.7a16.36,16.36,0,0,1,0-3.46,4.58,4.58,0,0,1,1.53-3.16c1.54-1.34,1-4.11-1.05-4.28a61.93,61.93,0,0,0-7.67-1h-.13c-4.5.29-8.37,1-8.44,1-2,.17-2.59,2.94-1,4.28a4.62,4.62,0,0,1,1.53,3.16,8.59,8.59,0,0,1,0,3.39c-3.18,7.55-9.49,5.77-9.49,5.77-.7,7.89-3.69,6.23-5,5.11a4.3,4.3,0,0,1-.92-1.12,40.45,40.45,0,0,1-2-4.06c-.51,2-1.4,2.17-2.17,1.78a2.39,2.39,0,0,1-1.26-2.36,17,17,0,0,0-1.42-7.58c.26,3.57-1.27,4.59-1.27,4.59s-1-4.08-5.61-10.21-.51-11.22.76-16.83,3.07-5.87,7.91-6.13c1.32-.07,2.06-.09,3.13-.17a47,47,0,0,1,7.31,0c23.18,1.94,38.44.56,43,.07a17.36,17.36,0,0,1,4.44,0c3.14.46,5.08,1.72,6.08,6.13C183.65,262.87,184.68,268,180.09,274.09Zm69.85-106.32c-.06.57-.13,1.14-.19,1.71-.93,3.16-1.43,10.39-2.13,17,0,0,.27,2.72.45,6.85-.29,6.2-.62,14.07-1,24.42-.68,4-1.36,4.93-1.36,4.93a17.63,17.63,0,0,0-2.3-8.93,45.66,45.66,0,0,1-.34,14.59,8.68,8.68,0,0,1-3.73,5.65,26.09,26.09,0,0,0-10.16,12.78c-3.57,10.2-3.83,13.77-3.83,13.77a18.46,18.46,0,0,1-.25-6.63c.51-3.82-6.13,8.16-5.87,12a3.24,3.24,0,0,1-1.28-3.57s-3.57,9.44-9.69,13.26-4.85-.51-7.14,1c0,0-5.45-7.38-6.21-10.7a18.32,18.32,0,0,1,.5-10.46s-1.95.65-2.45,1.76c.45-1.41,2.18-7.79-1.88-13-4.59-5.87-6.89-2.3-8.93-4.85-1.83-2.28-3,1.37-5.48-2.25a1.19,1.19,0,0,0-1.63-.34c-.61.41-1.75.62-3.86,0-4.59-1.28-2-2.81-4.59-4.59a4.47,4.47,0,0,1-3.06,1c-1.34,0-1.58.77-2.17.5a4.75,4.75,0,0,0-2.87-.4,9.21,9.21,0,0,1-3.13-.1l-4.59-.77,0,0c-1.6-.35-2.3-.74-2.6-1.37a1,1,0,0,1,.64-1.34c7.15-2,8.76-5.73,9.7-6s2,.09,6.15-.48,5-2.76,5-2.76a9.77,9.77,0,0,0,3.69-2.65.22.22,0,0,0-.28-.34,15.62,15.62,0,0,1-5.89,2.39c-4.7.85-7.69.85-11.11,4.27s-6.81,4.48-9.59,4.49-6.18-1.08-9.58-4.49-6.41-3.42-11.12-4.27a15.56,15.56,0,0,1-5.88-2.39.23.23,0,0,0-.29.34,9.7,9.7,0,0,0,3.7,2.65s.89,2.19,5,2.76,5.19.24,6.16.48,2.55,4,9.7,6a1,1,0,0,1,.64,1.34c-.3.63-1,1-2.64,1.37l0,0-4.59.77a7.31,7.31,0,0,1-3.69-.06,2,2,0,0,0-2,.38c-.82.68-.91-.32-2.44-.32a4.47,4.47,0,0,1-3.06-1c-2.55,1.78,0,3.31-4.59,4.59a6.2,6.2,0,0,1-4.36,0,1.18,1.18,0,0,0-1.64.33c-2.44,3.62-3.65,0-5.48,2.25-2,2.55-4.34-1-8.93,4.85-4.06,5.19-2.34,11.57-1.88,13-.51-1.11-2.46-1.76-2.46-1.76,1.28,3.32.26,7.14-.5,10.46a91,91,0,0,1-3.06,9.18c-2.3-1.53-1,2.81-7.14-1s-10-13.26-10-13.26a3.24,3.24,0,0,1-1.28,3.57c.26-3.83-6.37-15.82-5.86-12a18.31,18.31,0,0,1-.26,6.63s-.25-3.57-3.82-13.77a100.48,100.48,0,0,0-5.45-12.93,21.19,21.19,0,0,1-2.05-5.78,45.9,45.9,0,0,1-.41-15,17.58,17.58,0,0,0-2.3,8.92s-1.53-2-2.29-13.52c-.58-8.65,1.22-24,2.15-31.09a43.82,43.82,0,0,1,1.13-5.56c1.14-4.32.75-10.49.23-14.21a3.72,3.72,0,0,1,.06-1.41,26.28,26.28,0,0,1,2-6.14,63.38,63.38,0,0,0,8.46-27.08c1.13-13,8.47-33.87,8.47-33.87,7-12.1,24.66-16.9,45.43-18,11.32-.22,26.91.13,37.42,3.07a18.77,18.77,0,0,0-3.85-2.34C171,71.69,187.32,74.12,199.65,76c8.66,2.21,16.6,5.3,20,9.58,0,0,.32-3-3.83-6.64,24.21,6.31,25.06,19.24,24.55,26.79-.56,8.46-1.12,19.74,1.13,28.77S251.07,158.18,249.94,167.77Z"/><g class="cls-11"><rect class="cls-12" x="70.45" y="136.52" width="17.08" height="57.76" transform="translate(69.27 -17.64) rotate(22.49)"/><rect class="cls-12" x="93.03" y="138.79" width="5.72" height="57.76" transform="translate(71.42 -23.93) rotate(22.49)"/></g><path class="cls-4" d="M251,150.6a78.76,78.76,0,0,1-11.91-2.28,67.19,67.19,0,0,1-8.55-2.91c-19.29-6.53-43.21-6.37-61.74,2.48-1.68.81-3.35,1.7-5,2.67a16.22,16.22,0,0,1-6.3,2.25c-9.12,1.23-18.61.48-26.48-4.43a16.44,16.44,0,0,0-1.59-.88c-18.37-8.46-40.3-8.53-59.3-2.09-1,.32-1.95.66-2.91,1a20.68,20.68,0,0,0-2.14,1C62.48,148.75,55,149,52.9,149.28l.5,5.05,9.18-.92C64.16,165.12,65,178,71.89,188c5.34,5.72,13.51,6.93,20.82,8.1,10,1.06,21.09,1.35,30.63-2.46a25.14,25.14,0,0,0,8.22-6.44,52.49,52.49,0,0,0,7.5-11.34c.46-.92.89-1.85,1.3-2.79a5.41,5.41,0,0,1,1.51-2l.82-.68a11.21,11.21,0,0,1,14.31,0,5.51,5.51,0,0,1,1.56,2.13,60.79,60.79,0,0,0,4.91,9.22c3.16,4.74,7.06,9.43,12.35,11.88,13.39,4.94,32.13,3.87,45.51-.7,7.22-2.16,11-9.16,12.73-16.06,1.87-6.51,3-16.67,3.82-23.35l14.2,2.06Zm-183.91-.4v0Zm66.1,30.09c-2.62,4-5.71,7.8-9.83,10.27-11.27,5.12-25.1,3.94-36.93,1.47-5.31-1.43-11.44-3.33-13.8-8.68-4.39-9.88-5-21.07-5.51-31.76,19.16-8.39,42.33-9.89,61.64-1,4.21,2.19,9.45,4.39,11.78,8.67C141,166.77,136.94,174,133.22,180.29Zm99.93-30.19v.1C233.14,150.07,233.15,150,233.15,150.1Zm-.08,3.15a114,114,0,0,1-2.85,22.63c-1.4,6.05-3.92,12.07-10.32,14.16-11.33,4.58-37.21,6.73-47.19-1.27-6.13-5.23-10.23-12.6-13-20.08-.89-3.31-3.23-8.38-.47-11.17,6.23-5.89,14.69-9,22.9-11.06,16.35-4,35.72-1.43,51,5.13C233.12,151.63,233.08,153.21,233.07,153.25Z"/><g class="cls-13"><rect class="cls-12" x="217.09" y="134.05" width="15.74" height="66.22" transform="translate(61.51 -60.51) rotate(17.71)"/><rect class="cls-12" x="210.18" y="132.3" width="4.21" height="66.22" transform="translate(60.38 -56.74) rotate(17.71)"/></g></svg>